<svg xmlns="http://www.w3.org/2000/svg" xmlns:xlink="http://www.w3.org/1999/xlink" width="1920" zoomAndPan="magnify" viewBox="0 0 1440 809.999993" height="1080" preserveAspectRatio="xMidYMid meet" version="1.0"><defs><g/></defs><rect x="-144" width="1728" fill="#ffffff" y="-80.999999" height="971.999992" fill-opacity="1"/><g fill="#243b7a" fill-opacity="1"><g transform="translate(591.86904, 433.154969)"><g><path d="M 47.125 -39.15625 C 47.007812 -39.082031 47.050781 -38.925781 47.25 -38.6875 C 47.445312 -38.4375 47.472656 -38.257812 47.328125 -38.15625 C 47.191406 -38.0625 46.722656 -37.953125 45.921875 -37.828125 C 45.117188 -37.710938 44.441406 -37.65625 43.890625 -37.65625 C 43.347656 -37.65625 43.039062 -37.710938 42.96875 -37.828125 C 42.96875 -37.867188 42.875 -37.921875 42.6875 -37.984375 C 42.507812 -38.046875 42.320312 -38.097656 42.125 -38.140625 C 41.957031 -38.222656 41.773438 -38.300781 41.578125 -38.375 C 41.378906 -38.457031 41.257812 -38.539062 41.21875 -38.625 C 41.09375 -38.738281 40.503906 -38.804688 39.453125 -38.828125 C 38.410156 -38.847656 37.128906 -38.816406 35.609375 -38.734375 C 34.960938 -38.703125 34.535156 -38.65625 34.328125 -38.59375 C 34.128906 -38.53125 33.988281 -38.421875 33.90625 -38.265625 C 33.75 -38.015625 33.53125 -37.609375 33.25 -37.046875 C 33.09375 -36.804688 32.75 -36.203125 32.21875 -35.234375 C 31.695312 -34.273438 31.132812 -33.234375 30.53125 -32.109375 C 29.6875 -30.535156 29.125 -29.457031 28.84375 -28.875 C 28.5625 -28.289062 28.609375 -27.988281 28.984375 -27.96875 C 29.367188 -27.945312 30.109375 -27.976562 31.203125 -28.0625 C 31.765625 -28.144531 32.46875 -28.203125 33.3125 -28.234375 C 34.15625 -28.273438 34.898438 -28.316406 35.546875 -28.359375 L 37.890625 -28.484375 L 38.4375 -27.9375 C 39.125 -27.25 39.304688 -26.644531 38.984375 -26.125 C 38.816406 -25.757812 38.796875 -25.476562 38.921875 -25.28125 C 39.003906 -25.164062 39.003906 -25.085938 38.921875 -25.046875 C 38.835938 -25.003906 38.632812 -24.960938 38.3125 -24.921875 C 37.707031 -24.878906 36.648438 -24.785156 35.140625 -24.640625 C 33.640625 -24.503906 32.203125 -24.394531 30.828125 -24.3125 C 30.191406 -24.28125 29.53125 -24.234375 28.84375 -24.171875 C 28.15625 -24.109375 27.648438 -24.054688 27.328125 -24.015625 L 26.25 -23.890625 L 25.40625 -22.078125 C 24.800781 -20.796875 24.335938 -19.820312 24.015625 -19.15625 C 23.691406 -18.488281 23.445312 -17.984375 23.28125 -17.640625 C 23.125 -17.304688 22.96875 -16.9375 22.8125 -16.53125 C 22.40625 -15.5625 21.929688 -14.375 21.390625 -12.96875 C 20.847656 -11.5625 20.335938 -10.15625 19.859375 -8.75 C 19.367188 -7.382812 19.03125 -6.578125 18.84375 -6.328125 C 18.664062 -6.085938 18.359375 -6.007812 17.921875 -6.09375 C 17.722656 -6.175781 17.5625 -6.335938 17.4375 -6.578125 C 17.4375 -6.859375 17.335938 -7 17.140625 -7 C 16.535156 -7 16.554688 -8.304688 17.203125 -10.921875 C 17.398438 -11.679688 17.609375 -12.40625 17.828125 -13.09375 C 18.046875 -13.78125 18.359375 -14.632812 18.765625 -15.65625 C 19.171875 -16.6875 19.691406 -18.023438 20.328125 -19.671875 C 20.773438 -20.679688 21.128906 -21.546875 21.390625 -22.265625 C 21.648438 -22.992188 21.757812 -23.375 21.71875 -23.40625 C 21.644531 -23.488281 19.914062 -23.207031 16.53125 -22.5625 C 15.363281 -22.363281 14.476562 -22.222656 13.875 -22.140625 C 13.351562 -22.066406 13.09375 -21.96875 13.09375 -21.84375 C 13.09375 -21.800781 12.972656 -21.519531 12.734375 -21 C 12.492188 -20.476562 12.210938 -19.894531 11.890625 -19.25 C 11.003906 -17.4375 10.207031 -15.613281 9.5 -13.78125 C 8.800781 -11.957031 8.332031 -10.484375 8.09375 -9.359375 C 7.84375 -8.191406 7.457031 -7.726562 6.9375 -7.96875 C 6.78125 -8.050781 6.640625 -8.09375 6.515625 -8.09375 C 6.109375 -8.164062 5.828125 -8.382812 5.671875 -8.75 C 5.585938 -8.945312 5.425781 -9.046875 5.1875 -9.046875 C 4.75 -9.046875 4.53125 -9.59375 4.53125 -10.6875 C 4.53125 -11.25 4.71875 -12.082031 5.09375 -13.1875 C 5.476562 -14.289062 6.132812 -15.910156 7.0625 -18.046875 C 7.382812 -18.804688 7.65625 -19.46875 7.875 -20.03125 C 8.09375 -20.59375 8.179688 -20.894531 8.140625 -20.9375 C 8.109375 -20.976562 7.816406 -20.9375 7.265625 -20.8125 C 6.722656 -20.695312 6.050781 -20.535156 5.25 -20.328125 C 4.207031 -20.046875 3.429688 -19.875 2.921875 -19.8125 C 2.421875 -19.757812 2.007812 -19.753906 1.6875 -19.796875 C 0.84375 -19.910156 0.421875 -20.148438 0.421875 -20.515625 C 0.421875 -20.640625 0.34375 -20.78125 0.1875 -20.9375 C 0.0625 -21.019531 0 -21.117188 0 -21.234375 C 0 -21.359375 0.0390625 -21.601562 0.125 -21.96875 C 0.28125 -22.53125 0.421875 -22.851562 0.546875 -22.9375 C 0.703125 -22.9375 0.78125 -23.015625 0.78125 -23.171875 C 0.78125 -23.328125 0.867188 -23.445312 1.046875 -23.53125 C 1.234375 -23.613281 1.347656 -23.59375 1.390625 -23.46875 C 1.472656 -23.3125 1.765625 -23.257812 2.265625 -23.3125 C 2.765625 -23.375 3.800781 -23.609375 5.375 -24.015625 C 6.175781 -24.210938 6.96875 -24.398438 7.75 -24.578125 C 8.539062 -24.765625 9.054688 -24.878906 9.296875 -24.921875 L 10.203125 -25.046875 L 12.125 -28.90625 C 12.6875 -29.945312 13.257812 -31.050781 13.84375 -32.21875 C 14.425781 -33.382812 14.859375 -34.234375 15.140625 -34.765625 L 16.234375 -36.6875 L 15.5625 -36.5625 C 15.40625 -36.53125 15.144531 -36.492188 14.78125 -36.453125 C 14.414062 -36.410156 14.054688 -36.367188 13.703125 -36.328125 C 13.378906 -36.285156 12.820312 -36.191406 12.03125 -36.046875 C 11.25 -35.910156 10.457031 -35.742188 9.65625 -35.546875 C 7.96875 -35.179688 6.578125 -34.976562 5.484375 -34.9375 C 4.398438 -34.894531 3.800781 -35.015625 3.6875 -35.296875 C 3.5625 -35.503906 3.5 -35.804688 3.5 -36.203125 C 3.5 -36.609375 3.5625 -36.832031 3.6875 -36.875 C 3.800781 -36.945312 3.847656 -37.0625 3.828125 -37.21875 C 3.804688 -37.382812 3.71875 -37.46875 3.5625 -37.46875 C 3.320312 -37.46875 3.25 -37.609375 3.34375 -37.890625 C 3.445312 -38.171875 3.679688 -38.453125 4.046875 -38.734375 C 4.441406 -39.140625 4.863281 -39.34375 5.3125 -39.34375 C 5.46875 -39.34375 5.726562 -39.378906 6.09375 -39.453125 C 6.457031 -39.535156 6.800781 -39.597656 7.125 -39.640625 C 7.6875 -39.765625 8.085938 -39.828125 8.328125 -39.828125 C 8.566406 -39.828125 8.546875 -39.726562 8.265625 -39.53125 C 8.109375 -39.445312 8.226562 -39.425781 8.625 -39.46875 C 8.863281 -39.507812 9.46875 -39.585938 10.4375 -39.703125 C 11.40625 -39.828125 12.472656 -39.96875 13.640625 -40.125 C 14.804688 -40.289062 15.8125 -40.410156 16.65625 -40.484375 L 18.28125 -40.671875 L 18.828125 -41.515625 C 19.234375 -42.160156 19.613281 -42.851562 19.96875 -43.59375 C 20.332031 -44.34375 20.644531 -45 20.90625 -45.5625 C 21.164062 -46.125 21.296875 -46.445312 21.296875 -46.53125 C 21.296875 -46.644531 21.328125 -46.769531 21.390625 -46.90625 C 21.453125 -47.050781 21.503906 -47.207031 21.546875 -47.375 C 21.617188 -47.65625 21.597656 -47.851562 21.484375 -47.96875 C 21.316406 -48.007812 21.234375 -48.09375 21.234375 -48.21875 C 21.273438 -48.289062 21.273438 -48.367188 21.234375 -48.453125 C 21.203125 -48.535156 21.164062 -48.597656 21.125 -48.640625 C 20.914062 -48.753906 20.953125 -49.035156 21.234375 -49.484375 C 21.484375 -49.804688 21.625 -49.945312 21.65625 -49.90625 C 21.695312 -49.863281 21.617188 -49.660156 21.421875 -49.296875 C 21.222656 -48.972656 21.179688 -48.8125 21.296875 -48.8125 C 21.421875 -48.8125 21.484375 -48.875 21.484375 -49 C 21.484375 -49.238281 21.722656 -49.800781 22.203125 -50.6875 C 22.648438 -51.570312 23.296875 -52.546875 24.140625 -53.609375 C 24.984375 -54.679688 25.804688 -55.597656 26.609375 -56.359375 C 27.171875 -56.921875 27.550781 -57.25 27.75 -57.34375 C 27.957031 -57.445312 28.222656 -57.460938 28.546875 -57.390625 C 29.023438 -57.347656 29.425781 -57.265625 29.75 -57.140625 C 30.070312 -57.023438 30.234375 -56.90625 30.234375 -56.78125 C 30.234375 -56.625 30.429688 -56.382812 30.828125 -56.0625 C 31.472656 -55.5 31.515625 -54.957031 30.953125 -54.4375 C 30.671875 -54.1875 30.226562 -53.609375 29.625 -52.703125 C 29.019531 -51.804688 28.328125 -50.710938 27.546875 -49.421875 C 26.765625 -48.128906 25.953125 -46.757812 25.109375 -45.3125 C 24.421875 -44.070312 23.925781 -43.160156 23.625 -42.578125 C 23.320312 -41.992188 23.179688 -41.628906 23.203125 -41.484375 C 23.222656 -41.347656 23.351562 -41.296875 23.59375 -41.328125 C 23.675781 -41.367188 24.109375 -41.429688 24.890625 -41.515625 C 25.671875 -41.597656 26.566406 -41.660156 27.578125 -41.703125 C 28.546875 -41.773438 29.410156 -41.851562 30.171875 -41.9375 C 30.929688 -42.019531 31.332031 -42.082031 31.375 -42.125 C 31.457031 -42.164062 31.671875 -42.46875 32.015625 -43.03125 C 32.359375 -43.59375 32.726562 -44.234375 33.125 -44.953125 C 33.53125 -45.722656 33.992188 -46.566406 34.515625 -47.484375 C 35.035156 -48.410156 35.457031 -49.15625 35.78125 -49.71875 C 36.101562 -50.28125 36.375 -50.800781 36.59375 -51.28125 C 36.820312 -51.769531 36.953125 -52.078125 36.984375 -52.203125 C 36.984375 -52.316406 37.003906 -52.460938 37.046875 -52.640625 C 37.085938 -52.828125 37.128906 -52.984375 37.171875 -53.109375 L 37.296875 -53.53125 L 36.9375 -53.109375 C 36.6875 -52.785156 36.523438 -52.679688 36.453125 -52.796875 C 36.410156 -52.835938 36.628906 -53.140625 37.109375 -53.703125 C 37.304688 -53.898438 37.472656 -54.070312 37.609375 -54.21875 C 37.753906 -54.363281 37.828125 -54.4375 37.828125 -54.4375 C 37.796875 -54.4375 37.847656 -54.515625 37.984375 -54.671875 C 38.128906 -54.828125 38.300781 -55.007812 38.5 -55.21875 C 38.90625 -55.613281 39.238281 -55.960938 39.5 -56.265625 C 39.757812 -56.566406 40.050781 -56.976562 40.375 -57.5 C 40.613281 -57.820312 40.789062 -58.023438 40.90625 -58.109375 C 41.03125 -58.191406 41.234375 -58.191406 41.515625 -58.109375 C 41.960938 -58.023438 42.40625 -57.851562 42.84375 -57.59375 C 43.289062 -57.332031 43.53125 -57.101562 43.5625 -56.90625 C 43.5625 -56.664062 43.6875 -56.503906 43.9375 -56.421875 C 44.21875 -56.378906 44.304688 -56.226562 44.203125 -55.96875 C 44.097656 -55.707031 43.804688 -55.234375 43.328125 -54.546875 C 43.085938 -54.222656 42.816406 -53.835938 42.515625 -53.390625 C 42.210938 -52.953125 41.960938 -52.59375 41.765625 -52.3125 C 41.359375 -51.675781 40.84375 -50.820312 40.21875 -49.75 C 39.59375 -48.6875 38.976562 -47.597656 38.375 -46.484375 C 37.769531 -45.378906 37.265625 -44.445312 36.859375 -43.6875 C 36.460938 -42.925781 36.285156 -42.523438 36.328125 -42.484375 C 36.328125 -42.484375 36.535156 -42.472656 36.953125 -42.453125 C 37.378906 -42.429688 37.851562 -42.421875 38.375 -42.421875 C 39.382812 -42.460938 40.460938 -42.453125 41.609375 -42.390625 C 42.753906 -42.328125 43.757812 -42.253906 44.625 -42.171875 C 45.488281 -42.097656 46 -42.019531 46.15625 -41.9375 C 46.40625 -41.78125 46.671875 -41.5625 46.953125 -41.28125 C 47.148438 -41.03125 47.269531 -40.785156 47.3125 -40.546875 C 47.351562 -40.304688 47.269531 -40.226562 47.0625 -40.3125 C 46.988281 -40.351562 46.867188 -40.332031 46.703125 -40.25 C 46.703125 -40.125 46.765625 -40.023438 46.890625 -39.953125 C 47.085938 -39.910156 47.21875 -39.785156 47.28125 -39.578125 C 47.34375 -39.378906 47.289062 -39.238281 47.125 -39.15625 Z M 5.734375 -11.53125 C 5.816406 -11.6875 5.945312 -12.015625 6.125 -12.515625 C 6.300781 -13.023438 6.492188 -13.539062 6.703125 -14.0625 C 6.898438 -14.625 7.066406 -15.125 7.203125 -15.5625 C 7.347656 -16.007812 7.421875 -16.253906 7.421875 -16.296875 C 7.421875 -16.410156 7.316406 -16.234375 7.109375 -15.765625 C 6.910156 -15.304688 6.691406 -14.753906 6.453125 -14.109375 C 6.210938 -13.472656 6.03125 -12.929688 5.90625 -12.484375 C 5.75 -11.960938 5.640625 -11.5625 5.578125 -11.28125 C 5.515625 -11 5.566406 -11.082031 5.734375 -11.53125 Z M 11.046875 -19.3125 C 11.367188 -19.957031 11.617188 -20.507812 11.796875 -20.96875 C 11.972656 -21.425781 12.046875 -21.65625 12.015625 -21.65625 C 11.929688 -21.738281 11.65625 -21.695312 11.1875 -21.53125 C 10.726562 -21.375 10.5 -21.238281 10.5 -21.125 C 10.5 -21.082031 10.425781 -20.898438 10.28125 -20.578125 C 10.144531 -20.253906 9.976562 -19.875 9.78125 -19.4375 C 9.570312 -19.03125 9.382812 -18.644531 9.21875 -18.28125 C 9.0625 -17.914062 8.984375 -17.695312 8.984375 -17.625 C 8.984375 -17.414062 8.882812 -17.210938 8.6875 -17.015625 C 8.53125 -16.773438 8.453125 -16.570312 8.453125 -16.40625 C 8.453125 -16.25 8.367188 -16.007812 8.203125 -15.6875 C 8.160156 -15.53125 8.097656 -15.359375 8.015625 -15.171875 C 7.941406 -14.992188 7.90625 -14.84375 7.90625 -14.71875 C 7.90625 -14.476562 7.785156 -14.195312 7.546875 -13.875 C 7.503906 -13.757812 7.441406 -13.609375 7.359375 -13.421875 C 7.273438 -13.242188 7.234375 -13.09375 7.234375 -12.96875 C 7.234375 -12.644531 7.175781 -12.445312 7.0625 -12.375 C 6.9375 -12.332031 6.882812 -12.25 6.90625 -12.125 C 6.925781 -12.007812 7.019531 -11.953125 7.1875 -11.953125 C 7.34375 -11.953125 7.441406 -11.832031 7.484375 -11.59375 C 7.484375 -11.382812 7.570312 -11.460938 7.75 -11.828125 C 7.9375 -12.191406 8.367188 -13.21875 9.046875 -14.90625 C 9.285156 -15.46875 9.609375 -16.179688 10.015625 -17.046875 C 10.421875 -17.910156 10.765625 -18.664062 11.046875 -19.3125 Z M 24.921875 -40.484375 C 24.878906 -40.453125 25.066406 -40.4375 25.484375 -40.4375 C 25.910156 -40.4375 26.4375 -40.453125 27.0625 -40.484375 C 27.6875 -40.523438 28.289062 -40.578125 28.875 -40.640625 C 29.457031 -40.703125 29.867188 -40.753906 30.109375 -40.796875 C 30.304688 -40.835938 30.484375 -40.875 30.640625 -40.90625 C 30.804688 -40.945312 30.867188 -40.988281 30.828125 -41.03125 C 30.828125 -41.070312 30.523438 -41.070312 29.921875 -41.03125 C 29.328125 -40.988281 28.644531 -40.925781 27.875 -40.84375 C 27.113281 -40.769531 26.441406 -40.703125 25.859375 -40.640625 C 25.273438 -40.578125 24.960938 -40.523438 24.921875 -40.484375 Z M 28.421875 -39.765625 C 29.304688 -39.847656 29.847656 -39.929688 30.046875 -40.015625 C 30.085938 -40.046875 29.863281 -40.050781 29.375 -40.03125 C 28.894531 -40.019531 28.40625 -39.984375 27.90625 -39.921875 C 27.40625 -39.859375 27.132812 -39.804688 27.09375 -39.765625 C 27.050781 -39.722656 27.160156 -39.703125 27.421875 -39.703125 C 27.679688 -39.703125 28.015625 -39.722656 28.421875 -39.765625 Z M 29.6875 -36.75 C 29.882812 -37.226562 29.96875 -37.46875 29.9375 -37.46875 C 29.894531 -37.46875 29.757812 -37.242188 29.53125 -36.796875 C 29.3125 -36.359375 29.203125 -36.101562 29.203125 -36.03125 C 29.203125 -35.945312 29.234375 -35.941406 29.296875 -36.015625 C 29.359375 -36.097656 29.488281 -36.34375 29.6875 -36.75 Z M 24.265625 -40.484375 C 24.222656 -40.453125 24.300781 -40.4375 24.5 -40.4375 C 24.582031 -40.4375 24.640625 -40.441406 24.671875 -40.453125 C 24.710938 -40.472656 24.695312 -40.484375 24.625 -40.484375 C 24.457031 -40.566406 24.335938 -40.566406 24.265625 -40.484375 Z M 23.296875 -40.375 C 23.128906 -40.445312 22.96875 -40.445312 22.8125 -40.375 C 22.644531 -40.289062 22.742188 -40.25 23.109375 -40.25 C 23.472656 -40.25 23.535156 -40.289062 23.296875 -40.375 Z M 23.171875 -44.046875 C 23.046875 -44.003906 22.851562 -43.769531 22.59375 -43.34375 C 22.332031 -42.925781 22.082031 -42.492188 21.84375 -42.046875 C 21.601562 -41.609375 21.484375 -41.3125 21.484375 -41.15625 C 21.484375 -41.03125 21.625 -41.148438 21.90625 -41.515625 C 22.1875 -41.878906 22.328125 -42.101562 22.328125 -42.1875 C 22.328125 -42.300781 22.507812 -42.617188 22.875 -43.140625 C 23.15625 -43.585938 23.3125 -43.867188 23.34375 -43.984375 C 23.382812 -44.109375 23.328125 -44.128906 23.171875 -44.046875 Z M 14.71875 -26.96875 C 14.800781 -27.289062 14.921875 -27.535156 15.078125 -27.703125 C 15.117188 -27.773438 15.289062 -28.125 15.59375 -28.75 C 15.894531 -29.375 16.25 -30.066406 16.65625 -30.828125 C 17.0625 -31.597656 17.492188 -32.425781 17.953125 -33.3125 C 18.410156 -34.195312 18.78125 -34.878906 19.0625 -35.359375 C 19.507812 -36.128906 19.769531 -36.613281 19.84375 -36.8125 C 19.925781 -37.007812 19.890625 -37.128906 19.734375 -37.171875 C 19.285156 -37.328125 18.941406 -37.125 18.703125 -36.5625 C 18.660156 -36.40625 18.554688 -36.1875 18.390625 -35.90625 C 18.234375 -35.625 18.054688 -35.363281 17.859375 -35.125 C 17.703125 -34.84375 17.472656 -34.425781 17.171875 -33.875 C 16.867188 -33.332031 16.578125 -32.800781 16.296875 -32.28125 C 16.054688 -31.757812 15.832031 -31.316406 15.625 -30.953125 C 15.425781 -30.585938 15.285156 -30.390625 15.203125 -30.359375 C 15.046875 -30.273438 15.003906 -30.191406 15.078125 -30.109375 C 15.117188 -30.066406 14.96875 -29.65625 14.625 -28.875 C 14.289062 -28.09375 13.820312 -27.117188 13.21875 -25.953125 C 13.09375 -25.742188 13.160156 -25.648438 13.421875 -25.671875 C 13.679688 -25.691406 13.9375 -25.820312 14.1875 -26.0625 C 14.46875 -26.34375 14.644531 -26.644531 14.71875 -26.96875 Z M 16.40625 -25.046875 C 16.613281 -25.046875 16.742188 -25.054688 16.796875 -25.078125 C 16.859375 -25.097656 16.832031 -25.109375 16.71875 -25.109375 C 16.507812 -25.179688 16.285156 -25.179688 16.046875 -25.109375 C 15.929688 -25.066406 16.050781 -25.046875 16.40625 -25.046875 Z M 21.125 -24.859375 C 21.445312 -24.859375 21.546875 -24.878906 21.421875 -24.921875 C 21.265625 -25.003906 21.0625 -25.003906 20.8125 -24.921875 C 20.738281 -24.878906 20.84375 -24.859375 21.125 -24.859375 Z M 20.328125 -25.40625 C 21.179688 -25.5625 21.765625 -25.703125 22.078125 -25.828125 C 22.398438 -25.953125 22.34375 -26.015625 21.90625 -26.015625 C 21.707031 -26.015625 21.304688 -25.972656 20.703125 -25.890625 C 20.097656 -25.804688 19.503906 -25.710938 18.921875 -25.609375 C 18.335938 -25.515625 17.960938 -25.425781 17.796875 -25.34375 C 17.515625 -25.21875 17.644531 -25.164062 18.1875 -25.1875 C 18.738281 -25.207031 19.453125 -25.28125 20.328125 -25.40625 Z M 22.390625 -25.109375 C 22.265625 -25.179688 22.125 -25.179688 21.96875 -25.109375 C 21.800781 -25.023438 21.859375 -24.984375 22.140625 -24.984375 C 22.460938 -24.984375 22.546875 -25.023438 22.390625 -25.109375 Z M 17.796875 -9.71875 C 17.921875 -9.914062 17.921875 -10.015625 17.796875 -10.015625 C 17.753906 -10.054688 17.734375 -10 17.734375 -9.84375 C 17.734375 -9.675781 17.753906 -9.632812 17.796875 -9.71875 Z M 18.21875 -10.984375 C 18.300781 -11.179688 18.460938 -11.625 18.703125 -12.3125 C 18.941406 -13 19.203125 -13.722656 19.484375 -14.484375 C 20.253906 -16.453125 20.816406 -17.890625 21.171875 -18.796875 C 21.535156 -19.703125 21.769531 -20.304688 21.875 -20.609375 C 21.976562 -20.910156 22.007812 -21.082031 21.96875 -21.125 C 21.925781 -21.195312 21.765625 -20.890625 21.484375 -20.203125 C 21.203125 -19.523438 20.859375 -18.671875 20.453125 -17.640625 C 20.054688 -16.617188 19.65625 -15.570312 19.25 -14.5 C 18.84375 -13.4375 18.507812 -12.523438 18.25 -11.765625 C 17.988281 -11.003906 17.859375 -10.5625 17.859375 -10.4375 C 17.859375 -10.238281 17.898438 -10.195312 17.984375 -10.3125 C 18.066406 -10.4375 18.144531 -10.660156 18.21875 -10.984375 Z M 25.046875 -22.8125 C 25.328125 -23.332031 25.425781 -23.632812 25.34375 -23.71875 C 25.34375 -23.71875 25.28125 -23.71875 25.15625 -23.71875 C 25.039062 -23.71875 24.898438 -23.695312 24.734375 -23.65625 C 24.453125 -23.613281 24.238281 -23.5 24.09375 -23.3125 C 23.957031 -23.132812 23.691406 -22.566406 23.296875 -21.609375 C 23.054688 -21.078125 22.8125 -20.5 22.5625 -19.875 C 22.320312 -19.257812 22.125 -18.789062 21.96875 -18.46875 C 21.726562 -17.820312 21.4375 -17.023438 21.09375 -16.078125 C 20.75 -15.128906 20.40625 -14.160156 20.0625 -13.171875 C 19.71875 -12.191406 19.425781 -11.300781 19.1875 -10.5 C 18.945312 -9.695312 18.785156 -9.132812 18.703125 -8.8125 C 18.546875 -8.039062 18.515625 -7.484375 18.609375 -7.140625 C 18.710938 -6.804688 18.863281 -6.941406 19.0625 -7.546875 C 19.1875 -7.867188 19.207031 -8.171875 19.125 -8.453125 C 19.082031 -8.609375 19.113281 -8.894531 19.21875 -9.3125 C 19.320312 -9.738281 19.441406 -10.144531 19.578125 -10.53125 C 19.722656 -10.914062 19.832031 -11.109375 19.90625 -11.109375 C 19.988281 -11.109375 20.070312 -11.328125 20.15625 -11.765625 C 20.238281 -12.242188 20.335938 -12.484375 20.453125 -12.484375 C 20.535156 -12.484375 20.617188 -12.6875 20.703125 -13.09375 C 20.773438 -13.570312 20.875 -13.875 21 -14 C 21.082031 -14.082031 21.222656 -14.320312 21.421875 -14.71875 C 21.617188 -15.125 21.800781 -15.566406 21.96875 -16.046875 C 22.164062 -16.566406 22.375 -17.066406 22.59375 -17.546875 C 22.820312 -18.035156 22.992188 -18.363281 23.109375 -18.53125 C 23.429688 -19.09375 23.753906 -19.796875 24.078125 -20.640625 C 24.234375 -21.003906 24.398438 -21.40625 24.578125 -21.84375 C 24.765625 -22.289062 24.921875 -22.613281 25.046875 -22.8125 Z M 25.15625 -30.40625 C 25.5625 -31.21875 26.035156 -32.144531 26.578125 -33.1875 C 27.117188 -34.238281 27.59375 -35.101562 28 -35.78125 C 28.363281 -36.46875 28.664062 -37.0625 28.90625 -37.5625 C 29.144531 -38.0625 29.242188 -38.3125 29.203125 -38.3125 C 28.921875 -38.3125 27.9375 -38.210938 26.25 -38.015625 C 25.488281 -37.890625 24.703125 -37.785156 23.890625 -37.703125 C 23.085938 -37.628906 22.523438 -37.570312 22.203125 -37.53125 C 21.878906 -37.488281 21.585938 -37.445312 21.328125 -37.40625 C 21.066406 -37.375 20.9375 -37.335938 20.9375 -37.296875 C 20.851562 -37.171875 20.597656 -36.722656 20.171875 -35.953125 C 19.753906 -35.191406 19.265625 -34.269531 18.703125 -33.1875 C 18.140625 -32.101562 17.585938 -31.023438 17.046875 -29.953125 C 16.503906 -28.890625 16.050781 -27.992188 15.6875 -27.265625 C 15.320312 -26.546875 15.140625 -26.144531 15.140625 -26.0625 C 15.140625 -25.988281 15.265625 -25.988281 15.515625 -26.0625 C 15.628906 -26.101562 16.097656 -26.179688 16.921875 -26.296875 C 17.742188 -26.421875 18.660156 -26.566406 19.671875 -26.734375 C 20.710938 -26.847656 21.613281 -26.96875 22.375 -27.09375 C 23.144531 -27.21875 23.550781 -27.296875 23.59375 -27.328125 C 23.632812 -27.367188 23.804688 -27.691406 24.109375 -28.296875 C 24.410156 -28.898438 24.757812 -29.601562 25.15625 -30.40625 Z M 28.84375 -35.296875 C 28.84375 -35.421875 28.820312 -35.453125 28.78125 -35.390625 C 28.738281 -35.328125 28.640625 -35.175781 28.484375 -34.9375 C 28.398438 -34.738281 28.359375 -34.628906 28.359375 -34.609375 C 28.359375 -34.585938 28.441406 -34.65625 28.609375 -34.8125 C 28.765625 -35.0625 28.84375 -35.222656 28.84375 -35.296875 Z M 27.703125 -33.125 C 27.984375 -33.570312 28.125 -33.875 28.125 -34.03125 C 28.125 -34.070312 28.039062 -33.960938 27.875 -33.703125 C 27.71875 -33.441406 27.554688 -33.179688 27.390625 -32.921875 C 27.234375 -32.660156 27.15625 -32.488281 27.15625 -32.40625 C 27.15625 -32.238281 27.335938 -32.476562 27.703125 -33.125 Z M 26.609375 -31.140625 C 26.691406 -31.335938 26.734375 -31.445312 26.734375 -31.46875 C 26.734375 -31.488281 26.671875 -31.421875 26.546875 -31.265625 C 26.390625 -31.015625 26.3125 -30.851562 26.3125 -30.78125 C 26.3125 -30.570312 26.410156 -30.691406 26.609375 -31.140625 Z M 31.625 -26.015625 C 31.820312 -26.085938 31.828125 -26.125 31.640625 -26.125 C 31.460938 -26.125 31.070312 -26.101562 30.46875 -26.0625 C 29.945312 -26.03125 29.4375 -26.003906 28.9375 -25.984375 C 28.4375 -25.960938 28.082031 -25.910156 27.875 -25.828125 C 27.59375 -25.785156 27.703125 -25.765625 28.203125 -25.765625 C 28.710938 -25.765625 29.316406 -25.796875 30.015625 -25.859375 C 30.722656 -25.921875 31.257812 -25.972656 31.625 -26.015625 Z M 34.578125 -26.1875 C 34.816406 -26.1875 34.859375 -26.226562 34.703125 -26.3125 C 34.578125 -26.394531 34.472656 -26.394531 34.390625 -26.3125 C 34.316406 -26.226562 34.378906 -26.1875 34.578125 -26.1875 Z M 32.21875 -27.09375 C 31.863281 -27.09375 31.550781 -27.070312 31.28125 -27.03125 C 31.019531 -26.988281 30.890625 -26.945312 30.890625 -26.90625 C 30.890625 -26.875 31.140625 -26.863281 31.640625 -26.875 C 32.148438 -26.894531 32.726562 -26.925781 33.375 -26.96875 C 34.09375 -27.007812 34.671875 -27.0625 35.109375 -27.125 C 35.554688 -27.1875 35.78125 -27.238281 35.78125 -27.28125 C 35.664062 -27.394531 35.285156 -27.410156 34.640625 -27.328125 C 34.359375 -27.296875 33.972656 -27.257812 33.484375 -27.21875 C 33.003906 -27.175781 32.582031 -27.132812 32.21875 -27.09375 Z M 30.71875 -26.859375 C 30.71875 -26.929688 30.394531 -26.945312 29.75 -26.90625 C 29.101562 -26.875 28.597656 -26.796875 28.234375 -26.671875 C 28.035156 -26.628906 27.984375 -26.597656 28.078125 -26.578125 C 28.179688 -26.554688 28.4375 -26.566406 28.84375 -26.609375 C 29.164062 -26.648438 29.46875 -26.671875 29.75 -26.671875 C 30.03125 -26.671875 30.234375 -26.671875 30.359375 -26.671875 C 30.597656 -26.671875 30.71875 -26.734375 30.71875 -26.859375 Z M 30.296875 -32.765625 C 31.460938 -34.941406 32.253906 -36.429688 32.671875 -37.234375 C 33.097656 -38.035156 33.269531 -38.457031 33.1875 -38.5 C 33.144531 -38.625 33.003906 -38.6875 32.765625 -38.6875 C 32.523438 -38.6875 32.179688 -38.257812 31.734375 -37.40625 C 31.335938 -36.5625 31.019531 -36.140625 30.78125 -36.140625 C 30.65625 -36.140625 30.59375 -36 30.59375 -35.71875 C 30.59375 -35.4375 30.492188 -35.238281 30.296875 -35.125 C 30.253906 -35.039062 30.160156 -34.914062 30.015625 -34.75 C 29.878906 -34.59375 29.726562 -34.453125 29.5625 -34.328125 C 29.445312 -34.171875 29.164062 -33.695312 28.71875 -32.90625 C 28.28125 -32.125 27.828125 -31.28125 27.359375 -30.375 C 26.898438 -29.476562 26.570312 -28.785156 26.375 -28.296875 L 26.0625 -27.703125 L 27.640625 -27.703125 L 28.484375 -29.328125 C 28.679688 -29.765625 28.960938 -30.316406 29.328125 -30.984375 C 29.691406 -31.648438 30.015625 -32.242188 30.296875 -32.765625 Z M 35.609375 -42.96875 C 35.804688 -43.332031 35.84375 -43.515625 35.71875 -43.515625 C 35.675781 -43.515625 35.597656 -43.410156 35.484375 -43.203125 C 35.441406 -43.117188 35.398438 -43.023438 35.359375 -42.921875 C 35.316406 -42.828125 35.273438 -42.738281 35.234375 -42.65625 C 35.160156 -42.457031 35.171875 -42.398438 35.265625 -42.484375 C 35.367188 -42.566406 35.484375 -42.726562 35.609375 -42.96875 Z M 36.5625 -41.28125 C 36.84375 -41.28125 36.90625 -41.316406 36.75 -41.390625 C 36.625 -41.472656 36.484375 -41.472656 36.328125 -41.390625 C 36.160156 -41.316406 36.238281 -41.28125 36.5625 -41.28125 Z M 37.65625 -40.4375 C 37.894531 -40.4375 38.0625 -40.441406 38.15625 -40.453125 C 38.257812 -40.472656 38.253906 -40.484375 38.140625 -40.484375 C 38.054688 -40.523438 37.921875 -40.546875 37.734375 -40.546875 C 37.554688 -40.546875 37.410156 -40.546875 37.296875 -40.546875 C 37.171875 -40.503906 37.140625 -40.472656 37.203125 -40.453125 C 37.265625 -40.441406 37.414062 -40.4375 37.65625 -40.4375 Z M 40.125 -40.484375 C 40.570312 -40.484375 40.875 -40.484375 41.03125 -40.484375 C 41.195312 -40.484375 41.175781 -40.503906 40.96875 -40.546875 C 40.726562 -40.546875 40.445312 -40.546875 40.125 -40.546875 C 39.800781 -40.546875 39.539062 -40.546875 39.34375 -40.546875 C 39.144531 -40.503906 39.113281 -40.484375 39.25 -40.484375 C 39.394531 -40.484375 39.6875 -40.484375 40.125 -40.484375 Z M 44.046875 -41.09375 C 44.253906 -41.175781 43.941406 -41.253906 43.109375 -41.328125 C 42.285156 -41.410156 41.210938 -41.453125 39.890625 -41.453125 C 39.242188 -41.453125 38.695312 -41.429688 38.25 -41.390625 C 37.8125 -41.347656 37.59375 -41.3125 37.59375 -41.28125 C 37.59375 -41.238281 37.84375 -41.195312 38.34375 -41.15625 C 38.851562 -41.113281 39.488281 -41.09375 40.25 -41.09375 C 41.007812 -41.09375 41.648438 -41.082031 42.171875 -41.0625 C 42.703125 -41.039062 42.988281 -41.03125 43.03125 -41.03125 C 43.101562 -40.945312 43.257812 -40.914062 43.5 -40.9375 C 43.75 -40.957031 43.929688 -41.007812 44.046875 -41.09375 Z M 44.046875 -41.09375 "/></g></g></g><g fill="#243b7a" fill-opacity="1"><g transform="translate(638.88079, 417.048486)"><g><path d="M 9.859375 0.21875 C 7.953125 0.21875 6.128906 -0.0859375 4.390625 -0.703125 C 2.648438 -1.316406 1.332031 -2.109375 0.4375 -3.078125 L 1.78125 -5.21875 C 2.644531 -4.28125 3.84375 -3.523438 5.375 -2.953125 C 6.90625 -2.390625 8.488281 -2.109375 10.125 -2.109375 C 12.414062 -2.109375 14.257812 -2.554688 15.65625 -3.453125 C 17.050781 -4.359375 17.75 -5.617188 17.75 -7.234375 C 17.75 -8.097656 17.488281 -8.800781 16.96875 -9.34375 C 16.457031 -9.882812 15.804688 -10.320312 15.015625 -10.65625 C 14.222656 -10.988281 13.144531 -11.351562 11.78125 -11.75 C 10.175781 -12.21875 8.875 -12.664062 7.875 -13.09375 C 6.875 -13.53125 6.019531 -14.175781 5.3125 -15.03125 C 4.613281 -15.882812 4.265625 -16.988281 4.265625 -18.34375 C 4.265625 -19.945312 4.703125 -21.335938 5.578125 -22.515625 C 6.453125 -23.691406 7.671875 -24.59375 9.234375 -25.21875 C 10.804688 -25.851562 12.609375 -26.171875 14.640625 -26.171875 C 16.191406 -26.171875 17.671875 -25.976562 19.078125 -25.59375 C 20.492188 -25.207031 21.695312 -24.65625 22.6875 -23.9375 L 21.53125 -21.71875 C 20.59375 -22.40625 19.519531 -22.925781 18.3125 -23.28125 C 17.101562 -23.644531 15.828125 -23.828125 14.484375 -23.828125 C 12.210938 -23.828125 10.382812 -23.359375 9 -22.421875 C 7.625 -21.484375 6.9375 -20.210938 6.9375 -18.609375 C 6.9375 -17.710938 7.207031 -16.976562 7.75 -16.40625 C 8.289062 -15.84375 8.960938 -15.394531 9.765625 -15.0625 C 10.566406 -14.726562 11.648438 -14.363281 13.015625 -13.96875 C 14.617188 -13.5 15.914062 -13.046875 16.90625 -12.609375 C 17.894531 -12.179688 18.734375 -11.566406 19.421875 -10.765625 C 20.109375 -9.960938 20.453125 -8.90625 20.453125 -7.59375 C 20.453125 -5.96875 20 -4.566406 19.09375 -3.390625 C 18.195312 -2.210938 16.953125 -1.316406 15.359375 -0.703125 C 13.765625 -0.0859375 11.929688 0.21875 9.859375 0.21875 Z M 9.859375 0.21875 "/></g></g></g><g fill="#243b7a" fill-opacity="1"><g transform="translate(661.669443, 417.048486)"><g><path d="M 4.1875 -9 C 4.164062 -8.832031 4.15625 -8.578125 4.15625 -8.234375 C 4.15625 -6.253906 4.71875 -4.742188 5.84375 -3.703125 C 6.96875 -2.671875 8.640625 -2.15625 10.859375 -2.15625 C 12.140625 -2.15625 13.34375 -2.367188 14.46875 -2.796875 C 15.59375 -3.234375 16.515625 -3.832031 17.234375 -4.59375 L 18.421875 -2.703125 C 17.503906 -1.785156 16.359375 -1.070312 14.984375 -0.5625 C 13.617188 -0.0625 12.171875 0.1875 10.640625 0.1875 C 7.816406 0.1875 5.597656 -0.550781 3.984375 -2.03125 C 2.367188 -3.519531 1.5625 -5.546875 1.5625 -8.109375 C 1.5625 -10.285156 2.023438 -12.25 2.953125 -14 C 3.878906 -15.757812 5.160156 -17.140625 6.796875 -18.140625 C 8.441406 -19.140625 10.289062 -19.640625 12.34375 -19.640625 C 14.9375 -19.640625 17 -18.90625 18.53125 -17.4375 C 20.0625 -15.96875 20.828125 -13.945312 20.828125 -11.375 C 20.828125 -10.65625 20.738281 -9.863281 20.5625 -9 Z M 12.265625 -17.421875 C 10.316406 -17.421875 8.648438 -16.835938 7.265625 -15.671875 C 5.878906 -14.515625 4.941406 -12.945312 4.453125 -10.96875 L 18.34375 -10.96875 C 18.375 -11.144531 18.390625 -11.378906 18.390625 -11.671875 C 18.390625 -13.503906 17.832031 -14.921875 16.71875 -15.921875 C 15.601562 -16.921875 14.117188 -17.421875 12.265625 -17.421875 Z M 12.265625 -17.421875 "/></g></g></g><g fill="#243b7a" fill-opacity="1"><g transform="translate(684.050492, 417.048486)"><g><path d="M -2.328125 7.375 C -3.171875 7.375 -3.941406 7.269531 -4.640625 7.0625 C -5.347656 6.851562 -5.953125 6.550781 -6.453125 6.15625 L -5.21875 4.109375 C -4.476562 4.773438 -3.503906 5.109375 -2.296875 5.109375 C -1.234375 5.109375 -0.382812 4.8125 0.25 4.21875 C 0.894531 3.625 1.34375 2.6875 1.59375 1.40625 L 5.78125 -19.5 L 8.40625 -19.5 L 4.21875 1.484375 C 3.4375 5.410156 1.253906 7.375 -2.328125 7.375 Z M 8.1875 -23.78125 C 7.664062 -23.78125 7.238281 -23.953125 6.90625 -24.296875 C 6.570312 -24.648438 6.40625 -25.0625 6.40625 -25.53125 C 6.40625 -26.09375 6.597656 -26.566406 6.984375 -26.953125 C 7.367188 -27.335938 7.859375 -27.53125 8.453125 -27.53125 C 8.960938 -27.53125 9.390625 -27.363281 9.734375 -27.03125 C 10.085938 -26.695312 10.265625 -26.304688 10.265625 -25.859375 C 10.265625 -25.265625 10.066406 -24.769531 9.671875 -24.375 C 9.273438 -23.976562 8.78125 -23.78125 8.1875 -23.78125 Z M 8.1875 -23.78125 "/></g></g></g><g fill="#243b7a" fill-opacity="1"><g transform="translate(694.203484, 417.048486)"><g><path d="M 23.421875 -19.5 L 19.53125 0 L 17.015625 0 L 17.640625 -3.078125 C 16.703125 -2.035156 15.585938 -1.226562 14.296875 -0.65625 C 13.015625 -0.09375 11.597656 0.1875 10.046875 0.1875 C 8.390625 0.1875 6.914062 -0.144531 5.625 -0.8125 C 4.34375 -1.476562 3.34375 -2.4375 2.625 -3.6875 C 1.914062 -4.9375 1.5625 -6.398438 1.5625 -8.078125 C 1.5625 -10.273438 2.035156 -12.25 2.984375 -14 C 3.929688 -15.757812 5.242188 -17.140625 6.921875 -18.140625 C 8.609375 -19.140625 10.488281 -19.640625 12.5625 -19.640625 C 14.414062 -19.640625 15.972656 -19.273438 17.234375 -18.546875 C 18.492188 -17.816406 19.410156 -16.773438 19.984375 -15.421875 L 20.796875 -19.5 Z M 10.59375 -2.15625 C 12.207031 -2.15625 13.65625 -2.539062 14.9375 -3.3125 C 16.21875 -4.09375 17.222656 -5.179688 17.953125 -6.578125 C 18.679688 -7.972656 19.046875 -9.535156 19.046875 -11.265625 C 19.046875 -13.171875 18.484375 -14.660156 17.359375 -15.734375 C 16.234375 -16.804688 14.660156 -17.34375 12.640625 -17.34375 C 11.035156 -17.34375 9.585938 -16.945312 8.296875 -16.15625 C 7.015625 -15.363281 6.007812 -14.269531 5.28125 -12.875 C 4.550781 -11.476562 4.1875 -9.914062 4.1875 -8.1875 C 4.1875 -6.289062 4.75 -4.8125 5.875 -3.75 C 7 -2.6875 8.570312 -2.15625 10.59375 -2.15625 Z M 10.59375 -2.15625 "/></g></g></g><g fill="#243b7a" fill-opacity="1"><g transform="translate(719.326583, 417.048486)"><g><path d="M 7.484375 -25.9375 L 17.34375 -25.9375 C 19.914062 -25.9375 22.117188 -25.503906 23.953125 -24.640625 C 25.796875 -23.773438 27.191406 -22.546875 28.140625 -20.953125 C 29.097656 -19.359375 29.578125 -17.5 29.578125 -15.375 C 29.578125 -12.363281 28.910156 -9.695312 27.578125 -7.375 C 26.242188 -5.050781 24.359375 -3.238281 21.921875 -1.9375 C 19.484375 -0.644531 16.660156 0 13.453125 0 L 2.296875 0 Z M 13.53125 -2.375 C 16.21875 -2.375 18.566406 -2.921875 20.578125 -4.015625 C 22.597656 -5.117188 24.144531 -6.644531 25.21875 -8.59375 C 26.289062 -10.550781 26.828125 -12.773438 26.828125 -15.265625 C 26.828125 -17.835938 26 -19.863281 24.34375 -21.34375 C 22.6875 -22.832031 20.253906 -23.578125 17.046875 -23.578125 L 9.703125 -23.578125 L 5.484375 -2.375 Z M 13.53125 -2.375 "/></g></g></g><g fill="#243b7a" fill-opacity="1"><g transform="translate(749.933782, 417.048486)"><g><path d="M 22.015625 -19.5 L 9.484375 0 L 6.78125 0 L 1.96875 -19.5 L 4.59375 -19.5 L 8.640625 -2.859375 L 19.265625 -19.5 Z M 22.015625 -19.5 "/></g></g></g><g fill="#243b7a" fill-opacity="1"><g transform="translate(769.461579, 417.048486)"><g><path d="M 4.1875 -9 C 4.164062 -8.832031 4.15625 -8.578125 4.15625 -8.234375 C 4.15625 -6.253906 4.71875 -4.742188 5.84375 -3.703125 C 6.96875 -2.671875 8.640625 -2.15625 10.859375 -2.15625 C 12.140625 -2.15625 13.34375 -2.367188 14.46875 -2.796875 C 15.59375 -3.234375 16.515625 -3.832031 17.234375 -4.59375 L 18.421875 -2.703125 C 17.503906 -1.785156 16.359375 -1.070312 14.984375 -0.5625 C 13.617188 -0.0625 12.171875 0.1875 10.640625 0.1875 C 7.816406 0.1875 5.597656 -0.550781 3.984375 -2.03125 C 2.367188 -3.519531 1.5625 -5.546875 1.5625 -8.109375 C 1.5625 -10.285156 2.023438 -12.25 2.953125 -14 C 3.878906 -15.757812 5.160156 -17.140625 6.796875 -18.140625 C 8.441406 -19.140625 10.289062 -19.640625 12.34375 -19.640625 C 14.9375 -19.640625 17 -18.90625 18.53125 -17.4375 C 20.0625 -15.96875 20.828125 -13.945312 20.828125 -11.375 C 20.828125 -10.65625 20.738281 -9.863281 20.5625 -9 Z M 12.265625 -17.421875 C 10.316406 -17.421875 8.648438 -16.835938 7.265625 -15.671875 C 5.878906 -14.515625 4.941406 -12.945312 4.453125 -10.96875 L 18.34375 -10.96875 C 18.375 -11.144531 18.390625 -11.378906 18.390625 -11.671875 C 18.390625 -13.503906 17.832031 -14.921875 16.71875 -15.921875 C 15.601562 -16.921875 14.117188 -17.421875 12.265625 -17.421875 Z M 12.265625 -17.421875 "/></g></g></g><g fill="#243b7a" fill-opacity="1"><g transform="translate(791.842628, 417.048486)"><g><path d="M 7.453125 -15.9375 C 8.316406 -17.195312 9.398438 -18.128906 10.703125 -18.734375 C 12.015625 -19.335938 13.597656 -19.640625 15.453125 -19.640625 L 14.96875 -17.078125 L 14.234375 -17.125 C 12.128906 -17.125 10.40625 -16.515625 9.0625 -15.296875 C 7.71875 -14.085938 6.8125 -12.285156 6.34375 -9.890625 L 4.375 0 L 1.734375 0 L 5.59375 -19.5 L 8.109375 -19.5 Z M 7.453125 -15.9375 "/></g></g></g><g fill="#243b7a" fill-opacity="1"><g transform="translate(806.553332, 417.048486)"><g><path d="M 7.40625 0.1875 C 5.851562 0.1875 4.363281 -0.0351562 2.9375 -0.484375 C 1.519531 -0.929688 0.429688 -1.5 -0.328125 -2.1875 L 0.921875 -4.265625 C 1.660156 -3.617188 2.632812 -3.097656 3.84375 -2.703125 C 5.0625 -2.304688 6.335938 -2.109375 7.671875 -2.109375 C 9.523438 -2.109375 10.953125 -2.410156 11.953125 -3.015625 C 12.953125 -3.617188 13.453125 -4.476562 13.453125 -5.59375 C 13.453125 -6.207031 13.25 -6.703125 12.84375 -7.078125 C 12.4375 -7.453125 11.9375 -7.738281 11.34375 -7.9375 C 10.75 -8.132812 9.882812 -8.351562 8.75 -8.59375 C 7.382812 -8.894531 6.28125 -9.191406 5.4375 -9.484375 C 4.601562 -9.785156 3.890625 -10.253906 3.296875 -10.890625 C 2.703125 -11.535156 2.40625 -12.425781 2.40625 -13.5625 C 2.40625 -15.414062 3.171875 -16.890625 4.703125 -17.984375 C 6.234375 -19.085938 8.285156 -19.640625 10.859375 -19.640625 C 12.117188 -19.640625 13.347656 -19.472656 14.546875 -19.140625 C 15.742188 -18.804688 16.710938 -18.367188 17.453125 -17.828125 L 16.34375 -15.71875 C 15.601562 -16.257812 14.734375 -16.671875 13.734375 -16.953125 C 12.734375 -17.234375 11.703125 -17.375 10.640625 -17.375 C 8.859375 -17.375 7.472656 -17.050781 6.484375 -16.40625 C 5.492188 -15.769531 5 -14.910156 5 -13.828125 C 5 -13.179688 5.207031 -12.660156 5.625 -12.265625 C 6.050781 -11.867188 6.578125 -11.570312 7.203125 -11.375 C 7.835938 -11.175781 8.695312 -10.96875 9.78125 -10.75 C 11.113281 -10.445312 12.191406 -10.15625 13.015625 -9.875 C 13.847656 -9.59375 14.5625 -9.128906 15.15625 -8.484375 C 15.75 -7.847656 16.046875 -6.984375 16.046875 -5.890625 C 16.046875 -3.992188 15.257812 -2.503906 13.6875 -1.421875 C 12.125 -0.347656 10.03125 0.1875 7.40625 0.1875 Z M 7.40625 0.1875 "/></g></g></g><g fill="#243b7a" fill-opacity="1"><g transform="translate(824.673093, 417.048486)"><g><path d="M 10.421875 0.1875 C 8.640625 0.1875 7.082031 -0.148438 5.75 -0.828125 C 4.414062 -1.515625 3.382812 -2.476562 2.65625 -3.71875 C 1.925781 -4.96875 1.5625 -6.421875 1.5625 -8.078125 C 1.5625 -10.273438 2.039062 -12.25 3 -14 C 3.96875 -15.757812 5.304688 -17.140625 7.015625 -18.140625 C 8.734375 -19.140625 10.671875 -19.640625 12.828125 -19.640625 C 15.546875 -19.640625 17.703125 -18.898438 19.296875 -17.421875 C 20.890625 -15.941406 21.6875 -13.941406 21.6875 -11.421875 C 21.6875 -9.210938 21.203125 -7.222656 20.234375 -5.453125 C 19.273438 -3.691406 17.9375 -2.3125 16.21875 -1.3125 C 14.5 -0.3125 12.566406 0.1875 10.421875 0.1875 Z M 10.59375 -2.15625 C 12.207031 -2.15625 13.65625 -2.539062 14.9375 -3.3125 C 16.21875 -4.09375 17.222656 -5.179688 17.953125 -6.578125 C 18.679688 -7.972656 19.046875 -9.535156 19.046875 -11.265625 C 19.046875 -13.171875 18.484375 -14.660156 17.359375 -15.734375 C 16.234375 -16.804688 14.660156 -17.34375 12.640625 -17.34375 C 11.035156 -17.34375 9.585938 -16.945312 8.296875 -16.15625 C 7.015625 -15.363281 6.007812 -14.269531 5.28125 -12.875 C 4.550781 -11.476562 4.1875 -9.914062 4.1875 -8.1875 C 4.1875 -6.289062 4.75 -4.8125 5.875 -3.75 C 7 -2.6875 8.570312 -2.15625 10.59375 -2.15625 Z M 10.59375 -2.15625 "/></g></g></g></svg>