<?xml version="1.0" encoding="UTF-8"?><svg id="Camada_2" xmlns="http://www.w3.org/2000/svg" viewBox="0 0 339.32 69.48"><defs><style>.cls-1{fill:#243b7a;}</style></defs><g id="Camada_1-2"><path class="cls-1" d="M62.83,25.35c-.16.1-.1.31.17.63.26.33.3.57.1.71-.18.13-.81.27-1.88.44-1.07.16-1.97.23-2.71.23s-1.14-.07-1.23-.23c0-.05-.13-.13-.38-.21-.24-.08-.49-.15-.75-.21-.22-.11-.47-.21-.73-.31-.27-.11-.43-.22-.48-.33-.17-.15-.95-.24-2.35-.27-1.39-.03-3.1.02-5.13.13-.86.04-1.43.1-1.71.19-.27.08-.45.23-.56.44-.21.33-.5.88-.88,1.63-.21.32-.67,1.13-1.38,2.42-.7,1.28-1.45,2.67-2.25,4.17-1.13,2.1-1.88,3.54-2.25,4.31-.38.78-.31,1.18.19,1.21.51.03,1.5-.01,2.96-.13.75-.11,1.69-.19,2.81-.23,1.13-.05,2.11-.11,2.98-.17l3.13-.17.73.73c.92.92,1.16,1.72.73,2.42-.22.49-.25.86-.08,1.13.11.16.11.26,0,.31-.11.06-.39.11-.81.17-.81.06-2.22.18-4.23.38-2,.18-3.92.33-5.75.44-.85.04-1.73.1-2.65.19s-1.59.16-2.02.21l-1.44.17-1.13,2.42c-.81,1.71-1.43,3.01-1.85,3.9-.43.89-.76,1.56-.98,2.02-.21.45-.42.94-.63,1.48-.54,1.29-1.18,2.88-1.9,4.75-.72,1.88-1.41,3.75-2.04,5.63-.66,1.82-1.1,2.9-1.35,3.23-.24.32-.65.43-1.23.31-.27-.11-.48-.32-.65-.65,0-.38-.14-.56-.4-.56-.81,0-.78-1.74.08-5.23.26-1.01.54-1.98.83-2.9s.71-2.05,1.25-3.42c.54-1.38,1.23-3.16,2.08-5.35.59-1.34,1.07-2.5,1.42-3.46.34-.97.49-1.48.44-1.52-.1-.11-2.41.27-6.92,1.13-1.56.27-2.74.45-3.54.56-.7.1-1.04.23-1.04.4,0,.06-.16.43-.48,1.13-.32.7-.7,1.47-1.13,2.33-1.18,2.42-2.24,4.85-3.19,7.29-.93,2.43-1.56,4.4-1.88,5.9-.33,1.56-.85,2.18-1.54,1.85-.21-.11-.4-.17-.56-.17-.54-.09-.92-.39-1.13-.88-.11-.26-.33-.4-.65-.4-.58,0-.88-.73-.88-2.19,0-.75.25-1.86.75-3.33.51-1.47,1.39-3.63,2.63-6.48.43-1.01.79-1.9,1.08-2.65s.41-1.15.35-1.21c-.04-.05-.43,0-1.17.17-.72.16-1.62.37-2.69.65-1.39.38-2.43.6-3.1.69-.67.07-1.22.08-1.65.02-1.13-.15-1.69-.47-1.69-.96,0-.17-.1-.35-.31-.56-.17-.11-.25-.24-.25-.4,0-.17.05-.49.17-.98.21-.75.4-1.18.56-1.29.21,0,.31-.1.31-.31s.11-.36.35-.48c.25-.11.4-.08.46.08.11.21.5.28,1.17.21.67-.08,2.05-.4,4.15-.94,1.07-.26,2.13-.51,3.17-.75,1.05-.25,1.74-.4,2.06-.46l1.21-.17,2.56-5.15c.75-1.39,1.51-2.86,2.29-4.42.78-1.55,1.35-2.69,1.73-3.4l1.46-2.56-.9.17c-.21.04-.56.09-1.04.15-.49.06-.97.11-1.44.17-.43.06-1.18.18-2.23.38-1.04.18-2.1.41-3.17.67-2.25.49-4.1.76-5.56.81-1.45.06-2.24-.1-2.4-.48-.17-.28-.25-.68-.25-1.21s.08-.84.25-.9c.15-.09.21-.25.19-.46-.03-.22-.15-.33-.35-.33-.32,0-.42-.19-.29-.56.14-.38.45-.75.94-1.13.53-.54,1.09-.81,1.69-.81.21,0,.55-.05,1.04-.15.48-.11.94-.19,1.38-.25.75-.17,1.28-.25,1.6-.25s.29.14-.08.4c-.21.11-.05.14.48.08.32-.05,1.13-.16,2.42-.31,1.29-.17,2.71-.35,4.27-.56,1.55-.22,2.9-.38,4.02-.48l2.17-.25.73-1.13c.54-.86,1.05-1.78,1.52-2.77.48-1,.9-1.88,1.25-2.63.34-.75.52-1.18.52-1.29,0-.15.04-.32.13-.5.08-.19.15-.4.21-.63.09-.38.07-.64-.08-.79-.22-.05-.33-.17-.33-.33.05-.09.05-.2,0-.31-.04-.11-.09-.19-.15-.25-.28-.15-.23-.53.15-1.13.33-.43.52-.61.56-.56.05.06-.05.33-.31.81-.27.43-.32.65-.17.65.17,0,.25-.08.25-.25,0-.32.32-1.07.96-2.25.59-1.18,1.46-2.48,2.58-3.9,1.13-1.43,2.22-2.65,3.29-3.67.75-.75,1.26-1.19,1.52-1.31.28-.14.63-.16,1.06-.06.64.06,1.17.17,1.6.33.43.16.65.31.65.48,0,.21.26.53.79.96.86.75.92,1.47.17,2.17-.38.33-.97,1.1-1.77,2.31-.81,1.2-1.73,2.66-2.77,4.38-1.04,1.72-2.13,3.55-3.25,5.48-.92,1.66-1.58,2.87-1.98,3.65-.41.78-.59,1.27-.56,1.46.03.18.2.25.52.21.11-.05.69-.14,1.73-.25,1.04-.11,2.23-.19,3.58-.25,1.29-.09,2.44-.2,3.46-.31,1.01-.11,1.55-.19,1.6-.25.11-.05.4-.46.85-1.21s.95-1.6,1.48-2.56c.54-1.03,1.16-2.15,1.85-3.38.69-1.23,1.26-2.23,1.69-2.98.43-.75.79-1.44,1.08-2.08.3-.65.48-1.06.52-1.23,0-.15.03-.34.08-.58.05-.25.11-.46.17-.63l.17-.56-.48.56c-.33.43-.55.57-.65.42-.06-.05.23-.46.88-1.21.26-.26.48-.49.67-.69l.29-.29s.03-.1.21-.31c.19-.21.42-.45.69-.73.54-.53.98-.99,1.33-1.4.34-.4.73-.95,1.17-1.65.32-.43.55-.7.71-.81.17-.11.44-.11.81,0,.59.11,1.19.34,1.77.69.59.35.92.66.96.92,0,.32.17.54.5.65.38.06.49.26.35.6-.14.35-.53.98-1.17,1.9-.32.43-.68.95-1.08,1.54-.41.58-.74,1.06-1,1.44-.54.85-1.23,1.99-2.06,3.42-.83,1.42-1.66,2.87-2.46,4.35-.81,1.47-1.48,2.72-2.02,3.73-.53,1.02-.77,1.55-.71,1.6,0,0,.28.02.83.04.57.03,1.2.04,1.9.04,1.34-.05,2.78-.04,4.31.04,1.53.08,2.86.18,4.02.29,1.15.1,1.83.2,2.04.31.33.21.69.5,1.06.88.26.33.42.66.48.98.05.32-.06.43-.33.31-.1-.05-.26-.03-.48.08,0,.17.08.3.25.4.26.06.44.22.52.5.08.27.01.45-.21.56ZM7.65,62.19c.11-.21.28-.65.52-1.31.23-.68.49-1.36.77-2.06.26-.75.48-1.42.67-2,.19-.59.29-.92.29-.98,0-.15-.14.08-.42.71-.27.61-.56,1.35-.88,2.21-.32.85-.56,1.57-.73,2.17-.21.7-.35,1.23-.44,1.6s-.02.27.21-.33ZM14.73,51.81c.43-.86.76-1.59,1-2.21.23-.61.33-.92.29-.92-.11-.11-.48-.05-1.1.17-.61.21-.92.39-.92.54,0,.06-.1.3-.29.73-.18.43-.41.94-.67,1.52-.28.54-.53,1.06-.75,1.54-.21.49-.31.78-.31.88,0,.28-.14.55-.4.81-.21.32-.31.59-.31.81s-.11.53-.33.96c-.06.21-.14.44-.25.69-.1.24-.15.44-.15.6,0,.32-.16.7-.48,1.13-.06.16-.14.35-.25.6-.11.24-.17.44-.17.6,0,.43-.08.7-.23.79-.17.06-.24.17-.21.33.03.16.15.23.38.23.21,0,.34.16.4.48,0,.28.11.18.35-.31.25-.48.82-1.85,1.73-4.1.32-.75.75-1.7,1.29-2.85.54-1.15,1-2.16,1.38-3.02ZM33.23,23.58c-.06.04.19.06.75.06s1.27-.02,2.1-.06c.83-.05,1.64-.13,2.42-.21.78-.08,1.32-.15,1.65-.21.26-.05.5-.1.71-.15.22-.05.3-.11.25-.17,0-.05-.41-.05-1.21,0-.79.06-1.7.14-2.73.25-1.02.1-1.91.19-2.69.27-.78.08-1.2.16-1.25.21ZM37.9,24.54c1.18-.11,1.9-.22,2.17-.33.05-.04-.24-.05-.9-.02-.64.02-1.29.06-1.96.15s-1.03.16-1.08.21c-.06.06.09.08.44.08s.79-.03,1.33-.08ZM39.58,28.56c.26-.64.38-.96.33-.96-.06,0-.24.3-.54.9-.29.58-.44.93-.44,1.02,0,.11.04.12.13.02.08-.11.26-.44.52-.98ZM32.35,23.58c-.06.04.05.06.31.06.11,0,.19,0,.23-.02.05-.03.03-.04-.06-.04-.22-.11-.39-.11-.48,0ZM31.06,23.73c-.22-.09-.44-.09-.65,0-.22.11-.09.17.4.17s.57-.05.25-.17ZM30.9,18.83c-.17.06-.43.37-.77.94-.35.56-.68,1.14-1,1.73-.32.58-.48.98-.48,1.19,0,.17.19.01.56-.48.38-.48.56-.78.56-.9,0-.15.24-.57.73-1.27.38-.59.58-.97.63-1.13.05-.17-.02-.19-.23-.08ZM19.63,41.6c.11-.43.27-.76.48-.98.05-.09.28-.56.69-1.4.4-.83.88-1.76,1.42-2.77.54-1.03,1.11-2.13,1.73-3.31.61-1.18,1.1-2.09,1.48-2.73.59-1.03.94-1.67,1.04-1.94.11-.26.06-.42-.15-.48-.6-.21-1.06.06-1.38.81-.06.21-.2.5-.42.88-.21.38-.45.72-.71,1.04-.21.38-.52.93-.92,1.67-.41.72-.79,1.43-1.17,2.13-.32.7-.62,1.29-.9,1.77-.27.49-.45.75-.56.79-.21.11-.27.22-.17.33.05.06-.15.6-.6,1.65-.45,1.04-1.07,2.34-1.88,3.9-.17.28-.08.41.27.38.34-.03.69-.2,1.02-.52.38-.38.61-.78.71-1.21ZM21.88,44.17c.28,0,.45-.01.52-.04.08-.03.05-.04-.1-.04-.28-.09-.58-.09-.9,0-.16.06,0,.08.48.08ZM28.17,44.42c.43,0,.56-.03.4-.08-.21-.11-.48-.11-.81,0-.1.06.04.08.42.08ZM27.1,43.69c1.14-.21,1.92-.4,2.33-.56.43-.17.35-.25-.23-.25-.27,0-.8.06-1.6.17-.81.11-1.6.24-2.38.38-.78.13-1.28.24-1.5.35-.38.17-.2.24.52.21.73-.03,1.69-.13,2.85-.29ZM29.85,44.08c-.17-.09-.35-.09-.56,0-.22.11-.15.17.23.17.43,0,.54-.05.33-.17ZM23.73,64.6c.17-.26.17-.4,0-.4-.06-.05-.08.02-.08.23,0,.22.03.28.08.17ZM24.29,62.92c.11-.26.32-.85.65-1.77.32-.92.67-1.88,1.04-2.9,1.03-2.63,1.78-4.54,2.25-5.75.48-1.21.8-2.01.94-2.42.14-.4.18-.63.13-.69-.06-.09-.27.31-.65,1.23-.38.91-.83,2.04-1.38,3.42-.53,1.36-1.06,2.76-1.6,4.19-.54,1.42-.99,2.64-1.33,3.65-.35,1.02-.52,1.6-.52,1.77,0,.27.05.32.17.17.11-.17.21-.46.31-.9ZM33.4,47.14c.38-.69.51-1.09.4-1.21h-.25c-.16,0-.34.03-.56.08-.38.06-.66.21-.85.46-.18.24-.54.99-1.06,2.27-.32.71-.65,1.48-.98,2.31-.32.82-.58,1.45-.79,1.88-.32.86-.71,1.93-1.17,3.19-.46,1.27-.92,2.56-1.38,3.88-.46,1.31-.85,2.49-1.17,3.56-.32,1.07-.54,1.82-.65,2.25-.21,1.03-.25,1.77-.13,2.23.14.45.34.27.6-.54.17-.43.19-.83.08-1.21-.06-.21-.02-.59.13-1.15.14-.57.3-1.11.48-1.63.19-.51.34-.77.44-.77.11,0,.22-.29.33-.88.11-.64.24-.96.4-.96.11,0,.22-.27.33-.81.09-.64.23-1.04.4-1.21.11-.11.3-.43.56-.96.26-.54.51-1.13.73-1.77.26-.69.54-1.36.83-2,.3-.65.53-1.09.69-1.31.43-.75.86-1.69,1.29-2.81.21-.48.43-1.02.67-1.6.25-.59.46-1.03.63-1.29ZM33.54,37.02c.54-1.08,1.17-2.32,1.9-3.71.72-1.4,1.35-2.55,1.9-3.46.48-.92.89-1.71,1.21-2.38.32-.67.45-1,.4-1-.38,0-1.69.14-3.94.4-1.02.17-2.06.31-3.15.42-1.07.1-1.82.18-2.25.23-.43.06-.82.11-1.17.17-.35.04-.52.09-.52.15-.11.17-.45.77-1.02,1.79-.56,1.02-1.21,2.24-1.96,3.69-.75,1.45-1.49,2.89-2.21,4.31-.72,1.42-1.33,2.61-1.81,3.58-.49.96-.73,1.49-.73,1.6,0,.1.17.1.5,0,.15-.05.78-.16,1.88-.31,1.09-.17,2.32-.36,3.67-.58,1.39-.15,2.59-.31,3.6-.48,1.03-.17,1.57-.27,1.63-.31.05-.05.28-.48.69-1.29.4-.8.86-1.74,1.4-2.81ZM38.46,30.5c0-.17-.03-.21-.08-.13-.06.08-.19.29-.4.6-.11.27-.17.41-.17.44,0,.03.11-.06.33-.27.21-.33.31-.55.31-.65ZM36.94,33.39c.38-.59.56-1,.56-1.21,0-.05-.11.09-.33.44-.21.35-.43.7-.65,1.04-.21.35-.31.58-.31.69,0,.22.24-.09.73-.96ZM35.48,36.04c.11-.26.17-.41.17-.44,0-.03-.08.06-.25.27-.21.33-.31.55-.31.65,0,.28.13.12.4-.48ZM42.17,42.87c.26-.09.27-.15.02-.15s-.76.03-1.56.08c-.7.04-1.38.08-2.04.1-.67.03-1.14.1-1.42.21-.38.06-.23.08.44.08s1.48-.04,2.42-.13c.94-.08,1.66-.15,2.15-.21ZM46.1,42.64c.32,0,.38-.05.17-.17-.17-.11-.31-.11-.42,0-.1.11-.02.17.25.17ZM42.96,41.44c-.47,0-.89.03-1.25.08-.35.06-.52.11-.52.17,0,.04.33.06,1,.04.68-.03,1.45-.07,2.31-.13.96-.05,1.73-.13,2.31-.21.59-.08.9-.15.9-.21-.16-.15-.66-.17-1.52-.06-.38.04-.89.09-1.54.15-.64.06-1.2.11-1.69.17ZM40.96,41.75c0-.09-.43-.11-1.29-.06-.86.04-1.54.15-2.02.31-.27.06-.33.1-.21.13.14.03.48.02,1.02-.04.43-.05.83-.08,1.21-.08h.81c.32,0,.48-.08.48-.25ZM40.4,33.87c1.55-2.9,2.61-4.89,3.17-5.96.57-1.07.8-1.63.69-1.69-.06-.17-.24-.25-.56-.25s-.78.57-1.38,1.71c-.53,1.13-.95,1.69-1.27,1.69-.17,0-.25.19-.25.56s-.14.64-.4.79c-.06.11-.18.28-.38.5-.18.21-.39.4-.6.56-.16.21-.53.84-1.13,1.9-.58,1.04-1.19,2.17-1.81,3.38-.61,1.2-1.05,2.12-1.31,2.77l-.42.79h2.1l1.13-2.17c.26-.58.64-1.32,1.13-2.21.48-.89.92-1.68,1.29-2.38ZM47.48,20.27c.26-.48.31-.73.15-.73-.06,0-.16.14-.31.42-.06.11-.11.24-.17.38-.06.13-.11.24-.17.35-.1.27-.08.34.04.23.14-.11.29-.32.46-.65ZM48.75,22.52c.38,0,.46-.05.25-.15-.17-.11-.35-.11-.56,0-.22.1-.12.15.31.15ZM50.21,23.64c.32,0,.54,0,.67-.02.14-.03.13-.04-.02-.04-.11-.05-.29-.08-.54-.08h-.58c-.17.06-.21.1-.13.13.08.02.28.02.6.02ZM53.5,23.58h1.21c.22,0,.19-.03-.08-.08h-2.17c-.27.06-.31.08-.13.08h1.17ZM58.73,22.77c.28-.11-.14-.21-1.25-.31-1.1-.11-2.53-.17-4.29-.17-.86,0-1.59.03-2.19.08-.58.06-.88.1-.88.15,0,.06.33.11,1,.17.68.06,1.53.08,2.54.08s1.86.02,2.56.04c.71.03,1.09.04,1.15.04.09.11.3.16.63.13.33-.03.57-.09.73-.21Z"/><path class="cls-1" d="M75.83,56.38c-2.54,0-4.97-.41-7.29-1.23-2.32-.82-4.08-1.88-5.27-3.17l1.79-2.85c1.15,1.25,2.75,2.26,4.79,3.02,2.04.75,4.15,1.13,6.33,1.13,3.05,0,5.51-.59,7.38-1.79,1.86-1.21,2.79-2.89,2.79-5.04,0-1.15-.35-2.09-1.04-2.81-.68-.72-1.55-1.3-2.6-1.75-1.06-.44-2.49-.93-4.31-1.46-2.14-.63-3.88-1.22-5.21-1.79-1.33-.58-2.47-1.44-3.42-2.58-.93-1.14-1.4-2.61-1.4-4.42,0-2.14.58-3.99,1.75-5.56,1.17-1.57,2.79-2.77,4.88-3.6,2.09-.84,4.5-1.27,7.21-1.27,2.07,0,4.04.26,5.92.77,1.89.52,3.49,1.25,4.81,2.21l-1.54,2.96c-1.25-.92-2.68-1.61-4.29-2.08-1.61-.48-3.31-.73-5.1-.73-3.03,0-5.47.63-7.31,1.88-1.83,1.25-2.75,2.95-2.75,5.08,0,1.2.36,2.18,1.08,2.94.72.75,1.61,1.35,2.69,1.79,1.07.45,2.51.93,4.33,1.46,2.14.63,3.86,1.23,5.19,1.81,1.32.57,2.44,1.39,3.35,2.46.92,1.07,1.38,2.48,1.38,4.23,0,2.17-.6,4.04-1.81,5.6-1.2,1.57-2.85,2.77-4.98,3.58-2.13.82-4.57,1.23-7.33,1.23Z"/><path class="cls-1" d="M98.65,44.09c-.03.22-.04.56-.04,1.02,0,2.64.75,4.66,2.25,6.04,1.5,1.38,3.73,2.06,6.69,2.06,1.71,0,3.31-.28,4.81-.85,1.5-.58,2.73-1.38,3.69-2.4l1.58,2.52c-1.22,1.22-2.75,2.18-4.58,2.85-1.82.67-3.75,1-5.79,1-3.77,0-6.72-.98-8.88-2.96-2.16-1.98-3.23-4.69-3.23-8.1,0-2.9.61-5.52,1.85-7.85,1.23-2.34,2.94-4.19,5.13-5.52,2.19-1.33,4.66-2,7.4-2,3.46,0,6.21.98,8.25,2.94s3.06,4.66,3.06,8.08c0,.96-.12,2.02-.35,3.17h-21.83ZM109.42,32.86c-2.6,0-4.82.78-6.67,2.33-1.85,1.54-3.1,3.64-3.75,6.27h18.52c.04-.23.06-.55.06-.94,0-2.44-.74-4.33-2.23-5.67-1.49-1.33-3.47-2-5.94-2Z"/><path class="cls-1" d="M119.8,65.92c-1.13,0-2.15-.14-3.08-.42-.94-.28-1.75-.68-2.42-1.21l1.65-2.73c.99.89,2.29,1.33,3.9,1.33,1.42,0,2.55-.4,3.4-1.19.86-.79,1.46-2.04,1.79-3.75l5.58-27.88h3.5l-5.58,27.98c-1.04,5.23-3.95,7.85-8.73,7.85ZM133.83,24.38c-.7,0-1.27-.23-1.71-.69-.45-.47-.67-1.02-.67-1.65,0-.75.26-1.38.77-1.9.51-.51,1.17-.77,1.96-.77.68,0,1.25.22,1.71.67.47.45.71.97.71,1.56,0,.79-.27,1.45-.79,1.98-.53.53-1.19.79-1.98.79Z"/><path class="cls-1" d="M167.68,30.09l-5.19,26h-3.35l.83-4.1c-1.25,1.39-2.74,2.47-4.46,3.23-1.71.75-3.6,1.13-5.67,1.13-2.21,0-4.18-.44-5.9-1.33-1.71-.89-3.04-2.17-4-3.83-.95-1.67-1.42-3.61-1.42-5.85,0-2.93.63-5.56,1.9-7.9,1.26-2.34,3.01-4.19,5.25-5.52,2.25-1.33,4.76-2,7.52-2,2.47,0,4.55.49,6.23,1.46,1.68.97,2.9,2.36,3.67,4.17l1.08-5.44h3.5ZM150.57,53.21c2.15,0,4.08-.51,5.79-1.54,1.71-1.04,3.05-2.49,4.02-4.35.97-1.86,1.46-3.94,1.46-6.25,0-2.54-.75-4.53-2.25-5.96-1.5-1.43-3.6-2.15-6.29-2.15-2.14,0-4.07.53-5.79,1.58-1.71,1.06-3.05,2.52-4.02,4.38-.97,1.86-1.46,3.95-1.46,6.25,0,2.53.75,4.5,2.25,5.92s3.59,2.13,6.29,2.13Z"/><path class="cls-1" d="M179.92,21.5h13.15c3.43,0,6.36.58,8.81,1.73,2.46,1.16,4.32,2.79,5.58,4.92,1.28,2.13,1.92,4.6,1.92,7.44,0,4.02-.89,7.57-2.67,10.67-1.78,3.1-4.29,5.52-7.54,7.25-3.25,1.72-7.02,2.58-11.29,2.58h-14.88l6.92-34.58ZM187.99,52.92c3.58,0,6.71-.73,9.4-2.19,2.69-1.47,4.76-3.51,6.19-6.1,1.43-2.61,2.15-5.57,2.15-8.9s-1.1-6.13-3.31-8.1c-2.21-1.98-5.45-2.98-9.73-2.98h-9.79l-5.63,28.27h10.73Z"/><path class="cls-1" d="M240.11,30.09l-16.71,26h-3.6l-6.42-26h3.5l5.4,22.19,14.17-22.19h3.67Z"/><path class="cls-1" d="M242.37,44.09c-.03.22-.04.56-.04,1.02,0,2.64.75,4.66,2.25,6.04,1.5,1.38,3.73,2.06,6.69,2.06,1.71,0,3.31-.28,4.81-.85,1.5-.58,2.73-1.38,3.69-2.4l1.58,2.52c-1.22,1.22-2.75,2.18-4.58,2.85-1.82.67-3.75,1-5.79,1-3.77,0-6.72-.98-8.88-2.96-2.16-1.98-3.23-4.69-3.23-8.1,0-2.9.61-5.52,1.85-7.85,1.23-2.34,2.94-4.19,5.13-5.52,2.19-1.33,4.66-2,7.4-2,3.46,0,6.21.98,8.25,2.94s3.06,4.66,3.06,8.08c0,.96-.12,2.02-.35,3.17h-21.83ZM253.14,32.86c-2.6,0-4.82.78-6.67,2.33-1.85,1.54-3.1,3.64-3.75,6.27h18.52c.04-.23.06-.55.06-.94,0-2.44-.74-4.33-2.23-5.67-1.49-1.33-3.47-2-5.94-2Z"/><path class="cls-1" d="M276.57,34.84c1.15-1.68,2.59-2.92,4.33-3.73,1.75-.8,3.86-1.21,6.33-1.21l-.65,3.42-.98-.06c-2.81,0-5.1.81-6.9,2.44-1.79,1.61-3,4.02-3.63,7.21l-2.63,13.19h-3.52l5.15-26h3.35l-.88,4.75Z"/><path class="cls-1" d="M296.12,56.34c-2.07,0-4.06-.3-5.96-.9-1.89-.59-3.34-1.35-4.35-2.27l1.67-2.77c.98.86,2.28,1.56,3.9,2.08,1.63.53,3.32.79,5.1.79,2.47,0,4.38-.4,5.71-1.21,1.33-.8,2-1.95,2-3.44,0-.82-.27-1.48-.81-1.98s-1.21-.88-2-1.15c-.79-.26-1.95-.55-3.46-.88-1.82-.4-3.29-.8-4.42-1.19-1.11-.4-2.06-1.03-2.85-1.88-.79-.86-1.19-2.05-1.19-3.56,0-2.47,1.02-4.44,3.06-5.9,2.04-1.47,4.78-2.21,8.21-2.21,1.68,0,3.32.22,4.92.67,1.59.45,2.89,1.03,3.88,1.75l-1.48,2.81c-.99-.72-2.15-1.27-3.48-1.65s-2.71-.56-4.13-.56c-2.38,0-4.22.43-5.54,1.29-1.32.85-1.98,1.99-1.98,3.44,0,.86.28,1.56.83,2.08.57.53,1.27.93,2.1,1.19.84.27,1.99.54,3.44.83,1.78.41,3.21.79,4.31,1.17,1.11.38,2.06.99,2.85,1.85.79.85,1.19,2,1.19,3.46,0,2.53-1.05,4.52-3.15,5.96-2.08,1.43-4.88,2.15-8.38,2.15Z"/><path class="cls-1" d="M324.3,56.34c-2.38,0-4.45-.45-6.23-1.35-1.78-.92-3.16-2.2-4.13-3.85-.97-1.67-1.46-3.6-1.46-5.81,0-2.93.64-5.56,1.92-7.9,1.29-2.34,3.07-4.19,5.35-5.52,2.29-1.33,4.88-2,7.75-2,3.63,0,6.5.99,8.63,2.96,2.13,1.97,3.19,4.64,3.19,8,0,2.95-.65,5.6-1.94,7.96-1.28,2.35-3.06,4.19-5.35,5.52s-4.87,2-7.73,2ZM324.53,53.21c2.15,0,4.08-.51,5.79-1.54,1.71-1.04,3.05-2.49,4.02-4.35.97-1.86,1.46-3.94,1.46-6.25,0-2.54-.75-4.53-2.25-5.96-1.5-1.43-3.6-2.15-6.29-2.15-2.14,0-4.07.53-5.79,1.58-1.71,1.06-3.05,2.52-4.02,4.38-.97,1.86-1.46,3.95-1.46,6.25,0,2.53.75,4.5,2.25,5.92s3.59,2.13,6.29,2.13Z"/></g></svg>